<svg width="64" height="64" viewBox="0 0 64 64" fill="none" xmlns="http://www.w3.org/2000/svg">
  <circle cx="32" cy="32" r="32" fill="#8B5CF6"/>
  <path d="M32 28C35.866 28 39 24.866 39 21C39 17.134 35.866 14 32 14C28.134 14 25 17.134 25 21C25 24.866 28.134 28 32 28Z" fill="white"/>
  <path d="M32 31C23.716 31 17 37.716 17 46C17 47.105 17.895 48 19 48H45C46.105 48 47 47.105 47 46C47 37.716 40.284 31 32 31Z" fill="white"/>
  <path d="M28 38H36M28 42H34M28 46H36" stroke="white" stroke-width="2" stroke-linecap="round"/>
  <circle cx="42" cy="42" r="6" fill="#F59E0B"/>
  <path d="M42 40V44M40 42H44" stroke="white" stroke-width="1.5" stroke-linecap="round"/>
</svg>
